<svg width="1440" height="541" viewBox="0 0 1440 541" fill="none" xmlns="http://www.w3.org/2000/svg">
    <g opacity="0.2">
    <mask id="mask0_50_59" style="mask-type:alpha" maskUnits="userSpaceOnUse" x="1011" y="0" width="647" height="936">
    <path fill-rule="evenodd" clip-rule="evenodd" d="M1551.84 388.659C1557.75 375.567 1558.37 356.545 1553.45 340.096C1547.93 320.29 1530.05 304.849 1515.85 301.156L1516.01 300.932L1513.47 300.597C1511.94 300.373 1510.71 300.261 1509.02 300.261C1500.28 300.261 1492.45 305.408 1487.15 314.808C1482.32 323.312 1480.25 334.166 1481.63 344.46C1483.24 356.768 1488.92 367.063 1496.98 372.098L1498.05 372.77L1498.35 372.963C1501.53 375.008 1504.36 376.833 1507.49 381.497C1514.86 392.687 1523.22 402.981 1534.04 402.981C1541.33 403.093 1547.7 397.946 1551.84 388.659ZM1498.74 365.944C1492.22 361.804 1487.38 353.076 1486.08 343.117C1484.85 333.382 1487.08 323.871 1492.37 316.374C1496.82 310.108 1502.42 306.863 1509.1 306.863C1524.83 306.863 1541.33 324.319 1546.09 334.166C1547.32 336.739 1548.39 339.648 1549.23 342.558C1553.61 357.888 1553.22 373.665 1548.16 384.742C1544.78 392.239 1539.72 396.268 1533.89 396.268C1527.67 396.268 1521 391.456 1514.63 382.281C1513.24 380.378 1512.17 378.812 1511.33 377.469L1511.26 377.374C1508.16 372.966 1506.82 371.054 1498.74 365.944Z" fill="url(#paint0_linear_50_59)"/>
    <path fill-rule="evenodd" clip-rule="evenodd" d="M1535.65 295.562C1561.67 321.633 1567.04 360.797 1563.43 388.771C1559.98 415.514 1548.24 436.103 1533.58 441.138C1531.35 441.921 1528.98 442.257 1526.44 442.257C1522.53 442.257 1518.54 441.474 1514.7 440.578L1513.17 440.243C1513.01 440.184 1512.82 440.156 1512.63 440.127C1512.46 440.1 1512.28 440.072 1512.09 440.019L1512 439.999C1506.48 438.882 1498.85 437.338 1490.91 419.094C1489.6 416.137 1488.52 413.45 1487.53 410.981L1487.53 410.979L1487.52 410.969C1487.24 410.266 1486.97 409.581 1486.69 408.912C1483.25 399.751 1481.93 397.712 1480.58 395.646L1480.48 395.484C1479.71 394.366 1478.94 393.247 1477.95 391.232C1473.11 381.497 1467.13 376.686 1461.29 372.098L1461.12 371.961C1456.43 368.207 1451.97 364.64 1448.48 358.671C1440.11 344.46 1440.19 327.564 1448.86 308.541C1458.61 287.057 1474.19 275.196 1492.83 275.196C1507.34 275.196 1522.53 282.47 1535.65 295.562ZM1513.01 433.641C1513.86 433.753 1514.63 433.865 1515.47 434.089L1516.62 434.312C1519.23 434.872 1521.84 435.431 1524.45 435.543L1525.37 435.543C1536.34 435.543 1545.93 427.487 1552.3 412.716C1561.82 390.785 1562.43 359.678 1553.84 333.382C1545.78 309.101 1522.45 286.386 1501.96 282.693C1498.89 282.134 1495.9 281.91 1493.06 281.91C1475.41 281.91 1461.83 292.093 1452.78 312.234C1445.18 328.906 1444.95 342.334 1452.01 354.307C1454.91 359.297 1458.89 362.499 1463.19 365.953L1463.6 366.28C1480.5 379.713 1486.75 395.46 1491.79 408.164L1491.91 408.464C1496.06 419.094 1499.43 427.487 1507.34 432.074C1508.87 432.949 1510.57 433.233 1512.25 433.512C1512.41 433.538 1512.57 433.564 1512.72 433.591L1512.88 433.618L1513.01 433.641Z" fill="url(#paint1_linear_50_59)"/>
    <path fill-rule="evenodd" clip-rule="evenodd" d="M1565.58 430.06C1574.71 399.177 1574.86 361.916 1565.96 330.473C1560.21 310.779 1548.39 290.974 1533.43 276.203C1521.46 264.454 1502.04 250.356 1477.25 250.356C1470.04 250.356 1462.75 251.586 1455.62 254.048C1437.51 260.426 1423.54 274.637 1412.95 297.576C1402.67 319.507 1400.52 338.529 1406.5 354.083C1412.8 370.644 1422.85 376.462 1431.75 381.609L1432.13 381.833C1450.17 392.351 1453.39 397.834 1461.06 413.612C1462.44 416.521 1463.37 418.871 1464.06 421.668C1464.52 423.458 1464.98 425.249 1465.51 427.039L1466.9 432.074C1472.96 456.691 1481.78 482.316 1500.74 484.889C1501.27 485.001 1501.73 485.001 1502.35 485.001C1503.81 485.001 1505.19 484.777 1506.57 484.553C1506.7 484.536 1506.83 484.519 1506.95 484.502L1507.8 484.386C1508.04 484.352 1508.28 484.318 1508.53 484.284C1508.69 484.262 1508.86 484.24 1509.02 484.218C1511.1 483.994 1512.94 483.882 1514.78 483.882C1520.61 483.658 1525.6 483.435 1532.81 479.406C1546.86 471.35 1558.52 453.894 1565.58 430.06ZM1515.35 477.055C1514.82 477.083 1514.29 477.111 1513.78 477.168L1513.78 477.169C1512.71 477.28 1511.63 477.392 1510.56 477.616C1508.33 477.952 1506.11 478.287 1503.73 478.287C1498.97 478.287 1492.6 477.057 1485.93 467.993C1478.79 458.034 1475.49 445.838 1472.04 432.858L1471.94 432.491C1467.44 415.933 1462.81 398.861 1449.4 386.421C1444.38 381.725 1439.29 378.734 1434.27 375.784L1433.9 375.567C1427.91 372.098 1422.16 368.741 1417.55 363.035C1411.26 355.314 1407.73 345.243 1407.81 335.285C1408.04 317.046 1418.17 295.338 1428.14 281.91C1440.57 265.35 1457.23 256.957 1477.64 256.957C1481.25 256.957 1484.93 257.181 1488.77 257.741C1518.23 261.881 1551 295.673 1561.82 333.047C1571.1 365.832 1569.95 405.107 1558.83 435.431C1550.77 457.363 1538.64 471.685 1524.6 475.826C1522.45 476.493 1520.23 476.673 1518.06 476.85L1518.06 476.85L1518.05 476.851C1517.68 476.881 1517.3 476.912 1516.93 476.945C1516.4 477 1515.87 477.028 1515.36 477.055L1515.35 477.055Z" fill="url(#paint2_linear_50_59)"/>
    <path fill-rule="evenodd" clip-rule="evenodd" d="M1547.62 276.092C1526.83 247.67 1500.58 229.431 1475.72 226.074C1471.35 225.515 1466.97 225.291 1462.68 225.291L1461.83 225.291C1443.49 225.291 1427.22 230.214 1413.41 239.837C1398.91 250.02 1386.63 265.685 1376.88 286.498C1362.99 315.703 1360.31 340.32 1368.9 359.79C1377.59 379.894 1389.75 385.665 1402.61 391.768L1402.9 391.904C1416.79 398.394 1431.06 405.219 1441.73 430.955C1443.11 434.424 1445.64 440.914 1446.33 446.061C1447.79 457.363 1450.01 471.35 1457.99 494.4C1462.68 508.387 1469.73 518.458 1478.48 523.605C1483.32 526.403 1488.92 527.857 1494.98 527.857C1498.74 527.857 1502.73 527.298 1507.03 526.291C1529.28 520.584 1549.93 500.555 1563.51 471.014C1577.78 440.131 1583.46 401.751 1579.62 362.811C1578.55 351.621 1576.63 340.656 1573.87 330.137C1568.8 311.339 1559.67 292.652 1547.62 276.092ZM1494.9 521.367C1479.56 521.367 1469.12 511.856 1462.14 491.603C1454.46 469.336 1452.32 455.796 1450.86 444.942C1449.71 435.879 1442.03 412.604 1425.99 398.618C1418.93 392.463 1411.57 388.995 1404.43 385.638L1404.17 385.514C1396.52 381.868 1389.24 378.403 1383.02 371.874C1373.81 362.251 1368.52 349.048 1368.6 335.508C1368.67 311.563 1382.33 282.582 1395.91 264.454C1412.34 242.747 1434.74 231.781 1462.44 231.781C1466.67 231.781 1470.96 232.005 1475.34 232.564C1498.66 235.362 1524.45 253.265 1544.32 280.456C1555.99 296.457 1564.74 314.472 1569.57 332.487C1572.18 342.558 1574.1 353.076 1575.09 363.706C1583.46 447.628 1545.86 509.954 1506.26 519.577C1502.19 520.92 1498.36 521.367 1494.9 521.367Z" fill="url(#paint3_linear_50_59)"/>
    <path fill-rule="evenodd" clip-rule="evenodd" d="M1428.83 471.014C1427.91 463.965 1426.22 457.363 1423.69 451.209C1410.11 417.304 1391.77 409.807 1374.04 402.646L1374.01 402.632C1364.12 398.609 1354.77 394.804 1346.19 386.757C1332.99 374.56 1325.09 355.65 1324.93 336.18C1324.93 317.941 1330.15 298.135 1340.97 275.644C1358.24 238.942 1379.88 217.011 1409.11 206.716C1421.24 202.576 1434.44 200.338 1447.17 200.338C1465.9 200.338 1483.62 205.038 1498.43 213.878C1510.71 221.039 1522.38 230.438 1533.12 241.852C1548.7 258.3 1561.21 277.099 1570.41 297.688C1580.31 319.955 1586.38 344.572 1588.37 370.644C1590.21 394.03 1589.29 417.416 1585.45 440.355C1581.85 461.727 1575.94 481.756 1567.65 500.107C1559.9 517.451 1550.23 532.557 1538.8 544.865C1522.68 562.545 1502.35 573.063 1484.47 573.063C1464.82 573.063 1450.4 559.524 1441.65 532.669C1432.2 503.68 1430.4 486.046 1428.94 471.889L1428.91 471.574L1428.83 471.014ZM1484.62 566.237C1489.84 566.237 1495.52 565.119 1501.5 563.104C1556.22 540.278 1590.83 459.601 1583.92 371.203C1582.92 357.999 1580.77 344.908 1577.63 332.375C1561.28 268.707 1509.48 212.759 1462.14 207.723C1457.07 207.164 1452.01 206.94 1447.17 206.94C1412.34 206.94 1384.33 220.48 1363.84 247.334C1346.73 270.161 1329.46 306.415 1329.54 336.068C1329.54 352.964 1336.75 369.748 1348.72 381.05C1356.69 388.539 1365.74 392.232 1375.32 396.143L1375.35 396.156L1376.46 396.623C1385.17 400.277 1394.21 404.067 1402.82 411.15C1418.09 423.794 1430.68 447.964 1433.36 469.895L1433.51 471.35C1434.9 484.889 1436.66 501.786 1445.79 529.648C1453.7 553.929 1466.74 566.237 1484.62 566.237Z" fill="url(#paint4_linear_50_59)"/>
    <path fill-rule="evenodd" clip-rule="evenodd" d="M1345.01 413.321C1333.78 409.201 1322.19 404.947 1311.96 395.932C1295.93 382.169 1285.95 359.342 1285.8 336.515C1285.72 315.031 1292.01 291.421 1304.98 264.566C1326.7 219.696 1350.87 195.303 1385.86 182.994C1400.75 177.847 1416.1 175.274 1431.44 175.274L1432.75 175.274C1452.39 175.385 1469.04 177.959 1491.3 190.827C1536.27 217.122 1590.98 281.91 1597.04 378.029C1600.49 430.62 1591.59 483.994 1572.1 528.417C1559.75 556.726 1543.4 580.113 1524.68 596.002C1508.1 610.101 1490.22 617.933 1474.26 617.933C1466.97 617.933 1460.3 616.367 1454.46 613.122C1441.73 606.072 1431.9 591.75 1425.23 570.49C1414.63 537.042 1412.92 516.227 1411.55 499.557L1411.49 498.876C1410.72 489.253 1409.42 480.973 1405.58 471.238C1389.16 429.389 1366.83 421.221 1345.19 413.388L1345.01 413.321ZM1290.4 336.515C1290.48 357.104 1299.46 377.134 1314.34 390.225C1324.09 398.841 1334.91 402.758 1346.34 406.786C1357.47 410.814 1368.9 414.954 1379.72 423.682C1398.6 438.788 1413.41 468.105 1415.79 494.848L1415.94 496.862L1415.97 497.202C1417.42 514.8 1419.08 534.893 1429.37 567.58C1432.36 577.427 1436.51 586.155 1441.8 593.54C1450.17 605.065 1461.68 611.108 1475.03 611.108C1500.97 611.108 1531.28 588.393 1554.07 551.803C1583.08 505.254 1596.73 443.712 1592.44 378.588C1585.61 271.056 1511.17 189.037 1448.63 182.771C1443.34 182.211 1438.04 181.987 1432.82 181.987C1403.51 181.987 1362.07 190.379 1331.61 230.102C1314.96 251.81 1290.17 298.135 1290.4 336.515Z" fill="url(#paint5_linear_50_59)"/>
    <path fill-rule="evenodd" clip-rule="evenodd" d="M1387.55 491.267C1391 500.331 1393.07 510.178 1393.77 520.472C1393.8 521.255 1393.86 522.039 1393.92 522.822C1393.98 523.605 1394.03 524.388 1394.07 525.172C1395.3 544.865 1396.91 569.482 1408.88 608.422C1416.48 633.151 1427.76 649.712 1442.49 657.768C1449.09 661.349 1456.46 663.251 1464.29 663.251C1497.51 663.251 1545.17 630.354 1576.63 556.838C1587.3 532.109 1595.28 505.254 1600.26 476.945C1617.3 380.938 1595.74 310.444 1574.71 268.259C1557.83 234.578 1534.81 205.485 1507.95 184.113C1483.62 164.755 1457.69 153.006 1434.82 151.104L1433.98 150.992C1428.53 150.545 1423.08 150.321 1417.78 150.321C1382.56 150.321 1332.84 160.279 1296.31 207.835C1286.87 220.144 1277.89 235.138 1268.84 253.601C1253.64 284.82 1246.35 312.122 1246.58 336.963C1246.66 351.174 1249.88 364.713 1256.1 377.245C1272.29 409.36 1293.47 416.409 1315.8 423.794L1315.81 423.798C1341.67 432.413 1368.21 441.257 1387.55 491.267ZM1251.26 336.963C1251.11 313.577 1258.09 287.617 1272.67 257.517C1281.5 239.39 1290.25 224.843 1299.46 212.871C1334.91 166.769 1383.41 157.034 1417.86 157.034C1423.62 157.034 1429.45 157.258 1435.36 157.818C1500.66 163.86 1571.49 241.963 1593.36 331.928C1608.02 392.911 1604.02 464.524 1582.31 528.529C1562.28 587.721 1529.21 631.92 1491.68 649.824C1481.78 654.411 1472.5 656.649 1463.98 656.649L1463.9 656.649C1449.48 656.649 1437.28 649.936 1427.68 636.844C1421.85 628.899 1416.86 618.381 1413.03 605.625C1401.36 567.692 1399.83 543.858 1398.6 524.612C1398.56 523.773 1398.5 522.962 1398.45 522.151C1398.39 521.339 1398.33 520.528 1398.29 519.689C1396.83 497.757 1387.86 473.812 1373.66 453.894C1356.48 430.404 1336.61 423.798 1317.43 417.422L1317.41 417.416L1316.88 417.239C1303.73 412.83 1291.32 408.673 1280.04 399.177C1262.24 384.519 1251.42 361.132 1251.26 336.963Z" fill="url(#paint6_linear_50_59)"/>
    <path fill-rule="evenodd" clip-rule="evenodd" d="M1210.67 361.692C1208.75 353.971 1207.68 345.691 1207.6 337.411C1207.45 321.745 1209.98 304.849 1215.04 287.058C1219.19 273.071 1225.02 258.524 1232.77 242.635C1243.13 221.487 1253.34 204.478 1264.08 190.491C1305.67 136.558 1362.38 125.256 1402.67 125.256C1409.04 125.368 1415.64 125.592 1422.16 126.151C1447.86 128.389 1477.02 141.593 1504.34 163.524C1534.42 187.694 1560.36 220.591 1579.24 258.636C1603.03 306.527 1627.2 386.421 1607.55 495.184C1601.88 527.074 1592.9 557.286 1581 585.26C1565.27 622.521 1544.55 653.852 1521.07 675.895C1500.05 695.701 1477.49 707.226 1457.53 708.345C1456.31 708.457 1455.16 708.457 1453.93 708.457C1445.95 708.457 1438.04 706.443 1430.45 702.527C1422.23 697.939 1414.56 690.778 1408.42 681.602C1402.05 672.091 1396.68 660.23 1392.46 646.243C1379.19 602.156 1377.73 574.518 1376.58 552.362C1376.5 551.177 1376.45 550.017 1376.39 548.87C1376.33 547.637 1376.27 546.419 1376.19 545.201C1375.42 532.221 1373.28 521.367 1369.44 511.297C1347.26 453.111 1316.57 443.6 1286.87 434.424L1286.77 434.392C1261.33 426.459 1237.2 418.934 1218.57 382.952C1215.27 376.462 1212.59 369.301 1210.67 361.692ZM1212.13 337.411C1212.44 365.273 1224.94 391.792 1245.74 408.464C1258.94 419.095 1273.29 423.458 1288.48 428.046C1310.58 434.872 1333.37 441.921 1353.09 468.888C1360.84 479.518 1367.52 492.386 1373.51 508.052C1379.8 524.612 1380.57 539.159 1381.1 549.789L1381.18 551.579L1381.2 551.901C1382.35 573.666 1383.78 600.8 1396.68 643.558C1408.11 681.602 1428.07 701.743 1454.23 701.743C1464.44 701.743 1475.57 698.722 1487.38 692.792C1577.24 647.25 1633.65 468.441 1601.19 331.592C1573.71 216.004 1486.77 138.46 1422 132.753C1415.64 132.194 1409.19 131.97 1402.97 131.97C1363.45 131.97 1307.82 142.936 1267.3 195.527C1256.79 209.178 1246.81 225.85 1236.68 246.551C1219.88 281.015 1211.9 310.668 1212.13 337.411Z" fill="url(#paint7_linear_50_59)"/>
    <path fill-rule="evenodd" clip-rule="evenodd" d="M1359.08 578.994C1359 575.861 1358.85 572.951 1358.7 570.042C1357.93 554.712 1355.7 542.851 1351.33 531.326C1326.24 464.972 1291.55 454.789 1257.94 445.054L1257.66 444.973C1229.06 436.611 1202.01 428.699 1180.9 388.659C1177.14 381.386 1174.14 373.441 1171.92 364.937C1169.69 356.209 1168.47 347.034 1168.39 337.746C1168.16 320.179 1171.07 301.156 1176.98 281.351C1181.59 265.685 1188.11 249.461 1196.86 231.557C1208.52 207.835 1219.96 188.701 1232 173.147C1278.58 112.836 1342.43 100.191 1387.78 100.191L1388.01 100.191C1394.84 100.191 1401.82 100.527 1408.88 101.087C1448.02 104.332 1492.07 129.508 1529.59 170.126C1538.11 179.302 1546.32 189.26 1554.07 199.779C1582 237.823 1602.49 282.582 1613.46 329.242C1626.28 383.959 1626.89 449.306 1615.07 513.535C1608.63 548.782 1598.73 582.574 1585.61 613.681C1573.25 643.222 1557.98 669.853 1540.18 692.68C1522.68 714.947 1503.81 731.731 1484.24 742.25C1471.88 748.963 1460.07 752.768 1449.02 753.551C1447.4 753.663 1445.79 753.775 1444.18 753.775C1435.36 753.775 1426.76 751.537 1418.47 747.285C1409.19 742.362 1400.67 734.193 1393.77 723.899C1386.63 713.269 1380.72 699.953 1376.04 684.288C1361.49 635.059 1360.16 604.095 1359.09 579.173L1359.08 578.994ZM1408.65 107.8C1401.67 107.241 1394.61 106.905 1387.78 106.905C1343.27 106.905 1280.65 119.326 1235.15 178.295C1223.41 193.512 1212.13 212.199 1200.69 235.585C1181.74 274.413 1172.69 307.87 1172.99 337.858C1173.38 369.301 1187.73 399.177 1211.44 417.64C1226.24 429.098 1242.25 433.81 1259.25 438.812L1259.78 438.967C1294.01 449.017 1329.44 459.418 1355.4 528.305C1362.3 546.529 1362.99 562.743 1363.61 577.058L1363.61 577.091L1363.68 578.77L1363.69 578.991C1364.77 603.236 1366.11 633.521 1380.34 681.602C1393 724.346 1415.25 746.949 1444.72 746.949C1456.46 746.949 1469.27 743.257 1482.7 735.983C1564.66 691.785 1624.28 544.53 1618.45 400.744C1615.61 328.795 1592.36 261.098 1551.38 205.038C1510.41 148.978 1455.69 111.717 1408.65 107.8Z" fill="url(#paint8_linear_50_59)"/>
    <path fill-rule="evenodd" clip-rule="evenodd" d="M1341.2 594.883C1340.66 582.35 1339.28 567.356 1333.37 551.579C1305.36 476.945 1266.23 466.091 1228.24 455.684L1228.01 455.621C1196.25 446.805 1166.18 438.459 1143.3 394.589C1139.07 386.645 1135.7 377.805 1133.24 368.406C1130.71 358.671 1129.41 348.6 1129.25 338.306C1129.02 318.836 1132.17 297.799 1138.77 275.868C1143.91 258.524 1151.2 240.509 1160.87 220.703C1173.84 194.408 1186.57 173.259 1199.85 156.028C1224.41 124.249 1255.72 101.422 1292.78 88.3305C1317.41 79.6026 1344.35 75.2387 1372.89 75.2387C1404.12 75.2387 1428.83 79.155 1462.91 98.7368C1486.39 112.276 1508.49 130.291 1528.75 152.223C1538.03 162.182 1547.01 173.036 1555.45 184.561C1586.53 226.969 1609.32 276.875 1621.37 329.018C1635.33 388.771 1635.72 460.72 1622.52 531.662C1615.46 570.489 1604.56 607.639 1590.21 641.991C1576.71 674.664 1560.05 704.093 1540.64 729.605C1521.53 754.558 1500.97 773.357 1479.63 785.441C1465.9 793.162 1452.78 797.638 1440.42 798.757L1440.2 798.769C1438.28 798.877 1436.44 798.981 1434.59 798.981C1424.61 798.981 1415.17 796.631 1406.5 792.043C1396.22 786.56 1386.78 777.497 1379.19 766.083C1371.36 754.334 1364.76 739.564 1359.69 722.22C1343.83 667.846 1342.6 633.582 1341.6 606.033L1341.58 605.513C1341.51 602.268 1341.35 598.463 1341.2 594.883ZM1177.14 426.815C1193.71 439.348 1211.67 444.383 1230.62 449.642L1230.63 449.644C1268.92 460.274 1308.44 471.244 1337.29 548.558C1344.88 568.587 1345.5 586.826 1346.03 602.939L1346.11 604.953C1347.03 632.144 1348.26 666.049 1363.91 719.759C1369.29 738.109 1376.35 753.327 1384.86 764.964C1398.29 783.203 1414.94 792.491 1434.59 792.491C1448.09 792.491 1462.67 788.015 1478.1 779.287C1567.27 728.71 1632.72 565.678 1627.2 408.129C1624.44 329.018 1598.04 251.475 1552.84 189.708C1507.64 127.942 1447.25 86.9877 1395.38 82.8475C1387.93 82.2881 1380.49 81.9524 1373.2 81.9524C1323.4 81.9524 1253.57 95.7156 1202.92 161.175C1189.87 177.959 1177.37 198.772 1164.63 224.731C1143.53 267.811 1133.47 304.961 1133.86 338.306C1134.39 379.707 1156.57 411.15 1177.14 426.815Z" fill="url(#paint9_linear_50_59)"/>
    <path fill-rule="evenodd" clip-rule="evenodd" d="M1541.18 766.755C1562.2 738.669 1580.31 706.331 1594.89 670.524C1610.47 632.927 1622.29 592.421 1630.12 550.013C1641.93 486.344 1644.23 425.808 1636.79 370.308C1629.73 317.381 1613.62 267.028 1588.98 220.591C1579.24 202.352 1568.42 185.12 1556.91 169.231C1537.57 142.824 1515.93 119.885 1492.83 100.975C1481.02 91.3517 1468.58 82.8475 1456 75.5743C1443.95 68.6368 1431.44 62.9301 1418.78 58.6781C1407.73 54.9855 1396.45 52.4119 1385.17 51.2929L1382.33 51.0692C1374.35 50.5097 1366.37 50.174 1358.54 50.174L1358.31 50.174C1347.42 50.174 1336.67 50.7335 1326.31 51.8524C1307.28 53.8665 1288.25 58.1186 1269.68 64.6085C1229.01 78.9312 1194.79 103.884 1167.85 138.684C1153.27 157.482 1139.3 180.756 1125.03 209.737C1114.37 231.445 1106.38 251.251 1100.71 270.273C1093.49 294.331 1089.96 317.381 1090.27 338.753C1090.42 350.055 1091.96 361.132 1094.72 371.651C1097.48 381.945 1101.24 391.568 1105.85 400.296C1114.67 416.968 1126.8 431.291 1140.84 441.809C1159.54 455.83 1180.28 461.33 1200.44 466.673L1200.82 466.776C1242.02 477.738 1284.58 489.065 1315.34 571.608C1321.71 588.729 1323.17 604.842 1323.7 619.612C1323.86 623.64 1324.01 627.668 1324.09 631.92C1324.93 662.244 1326.01 700.065 1343.35 760.041C1348.87 779.063 1356.01 795.288 1364.68 808.268C1373.05 820.912 1383.41 830.759 1394.69 836.802C1404.05 841.725 1414.18 844.299 1424.92 844.299C1427.22 844.299 1429.6 844.187 1431.98 843.963C1445.56 842.62 1460.07 837.473 1475.11 828.521C1498.28 814.982 1520.46 794.169 1541.18 766.755ZM1142.91 435.879C1120.04 418.871 1095.41 384.295 1094.8 338.641C1094.34 302.052 1105.39 261.098 1128.72 213.654C1142.76 185.12 1156.49 162.182 1170.84 143.719C1226.4 71.9937 1303.29 56.8877 1358.01 56.8877C1365.91 56.8877 1373.97 57.2235 1382.02 57.7829C1438.73 62.035 1504.65 106.793 1554.15 174.49C1604.1 242.859 1633.11 328.459 1635.87 415.514C1641.09 586.714 1569.72 765.524 1473.42 822.479C1456.54 832.438 1440.34 837.473 1425.38 837.473C1403.74 837.473 1385.25 827.178 1370.44 806.925C1361.08 794.169 1353.4 777.497 1347.65 757.579C1331.84 702.974 1329.69 668.063 1328.69 631.361L1328.62 629.794C1328.08 610.436 1327.46 590.407 1319.33 568.475C1287.56 483.099 1243.9 471.462 1201.69 460.272C1180.9 454.789 1161.17 449.53 1142.91 435.879Z" fill="url(#paint10_linear_50_59)"/>
    <path fill-rule="evenodd" clip-rule="evenodd" d="M1541.71 803.68C1563.74 774.028 1583.23 738.781 1599.65 698.946C1616.38 658.216 1629.19 614.241 1637.71 568.363C1646.54 520.92 1650.37 471.797 1649.07 422.675C1648.07 384.966 1642.62 347.369 1632.88 311.115C1623.52 276.203 1610.24 242.411 1593.36 210.521C1582.69 190.491 1570.87 171.469 1558.14 154.125C1537.19 125.48 1513.86 100.751 1488.77 80.274C1475.95 69.8677 1462.44 60.5803 1448.79 52.6357C1435.66 45.1387 1422.08 38.9844 1408.42 34.2848C1395.45 29.9208 1382.18 27.1235 1368.9 26.1163C1360.38 25.445 1351.87 25.2212 1343.5 25.2212L1343.35 25.2212C1331.3 25.2212 1319.41 25.8927 1307.97 27.1235C1287.25 29.3614 1266.53 33.9492 1246.35 40.9986C1202.08 56.664 1164.86 83.7427 1135.62 121.452C1119.74 141.929 1104.47 167.217 1088.97 198.772C1077.3 222.494 1068.63 243.978 1062.49 264.566C1058.88 276.315 1056.05 288.624 1053.97 301.156C1051.9 313.577 1050.98 326.333 1051.06 339.201C1051.21 351.51 1052.9 363.482 1055.97 375.008C1058.96 386.197 1063.11 396.604 1068.17 406.115C1077.84 424.242 1091.11 439.795 1106.54 451.097C1126.96 466.1 1149.51 471.942 1171.39 477.612L1171.97 477.762C1216.98 489.389 1263.58 501.427 1297.23 591.974C1303.75 609.541 1305.52 625.766 1306.13 644.788C1306.22 647.182 1306.28 649.609 1306.34 652.126C1306.39 654.197 1306.45 656.329 1306.52 658.552L1306.52 658.663C1307.28 691.785 1308.28 732.962 1327 798.421C1332.68 818.339 1340.05 835.347 1348.95 849.11C1357.47 862.538 1368.13 873.28 1379.72 880.329C1390.62 886.819 1402.59 890.176 1415.33 890.176C1417.4 890.176 1419.55 890.064 1421.62 889.952C1437.04 888.721 1453.54 882.679 1470.58 872.272C1495.44 856.607 1519.38 833.668 1541.71 803.68ZM1414.33 883.015C1402.97 883.015 1391.92 879.881 1381.41 873.727C1372.13 868.132 1363.68 860.188 1356.39 850.117C1346.03 835.906 1337.52 817.555 1331.22 795.512C1312.84 731.3 1311.89 690.827 1311.12 658.298L1311.12 658.104L1311.12 657.768L1311.1 657.159C1310.5 633.024 1309.97 612.141 1301.3 588.617C1266.56 495.25 1219.03 483.004 1173.01 471.151L1172.92 471.126C1150.2 465.307 1128.72 459.713 1108.61 445.054C1083.44 426.592 1056.35 389.106 1055.66 339.089C1055.12 299.142 1067.25 254.496 1092.73 202.688C1108.07 171.469 1123.11 146.516 1138.69 126.487C1199.31 48.3837 1283.26 31.935 1343.12 31.935C1351.48 31.935 1360.15 32.2706 1368.67 32.8301C1430.14 37.306 1501.73 85.7568 1555.45 159.272C1591.9 209.066 1618.6 268.371 1632.88 330.697C1639.71 360.461 1643.62 391.568 1644.54 422.899C1649.76 610.884 1574.17 801.219 1468.81 865.671C1450.01 877.196 1431.98 883.015 1415.25 883.015L1414.33 883.015Z" fill="url(#paint11_linear_50_59)"/>
    <path fill-rule="evenodd" clip-rule="evenodd" d="M1017.37 378.253C1020.67 390.337 1025.12 401.639 1030.65 411.821C1041.16 431.403 1055.58 448.076 1072.31 460.16C1082.37 467.434 1093.72 473.252 1107.08 478.064C1118.8 482.311 1131.07 485.33 1142.87 488.237L1142.91 488.246L1143.02 488.273C1192.02 500.461 1242.62 513.047 1279.12 611.891C1287.98 635.943 1288.4 657.447 1288.93 684.562L1288.94 684.959L1288.94 685.044C1289.63 720.836 1290.49 765.356 1310.58 836.13C1316.72 857.614 1324.7 876.189 1334.22 891.071C1343.43 905.617 1355.01 917.255 1367.6 924.864C1379.26 931.689 1392 935.158 1405.51 935.158C1407.96 935.158 1410.49 935.046 1413.03 934.822C1429.75 933.256 1447.56 926.654 1465.97 915.017C1479.71 906.289 1492.99 895.659 1505.42 883.462C1518.39 870.706 1530.74 856.271 1542.17 840.718C1554.07 824.493 1565.27 806.813 1575.4 788.239C1585.91 768.993 1595.58 748.516 1604.25 727.479C1622.13 683.392 1635.87 636.06 1645.08 586.714C1654.67 535.69 1658.97 482.987 1657.82 430.06C1655.82 347.369 1633.8 265.462 1593.97 193.289C1583.38 174.043 1571.72 155.692 1559.36 138.795L1553.38 130.739C1538.87 111.829 1523.3 94.3729 1506.95 78.8193C1491.07 63.7134 1474.26 50.2858 1457 38.9844C1440.5 28.1305 1423.31 19.1789 1405.74 12.577C1389.31 6.31086 1372.43 2.50636 1355.47 1.16365C1346.42 0.492265 1337.36 0.156573 1328.46 0.156574C1315.26 0.156575 1302.22 0.827964 1289.71 2.28262C1267.38 4.63235 1244.97 9.77963 1223.1 17.2766C1175.29 34.1729 1135.01 63.3777 1103.47 104.108C1086.36 126.151 1069.78 153.566 1052.98 187.806C1040.39 213.43 1030.95 236.704 1024.28 258.972C1020.44 271.728 1017.29 284.931 1015.07 298.471C1012.84 311.898 1011.84 325.773 1011.92 339.537C1012.23 352.852 1013.99 365.832 1017.37 378.253ZM1404.59 928.444C1392.46 928.444 1380.64 925.087 1369.44 918.597C1359.31 912.555 1350.1 903.939 1342.2 892.973C1330.92 877.532 1321.79 857.614 1314.96 833.557C1295.16 763.957 1294.31 719.982 1293.7 684.735C1293.16 656.537 1292.7 634.27 1283.34 608.646C1266.46 562.881 1245.2 531.102 1218.34 511.52C1194.75 494.21 1169.35 487.904 1144.76 481.798L1144.14 481.644L1143.28 481.43C1118.97 475.356 1095.93 469.602 1074.54 454.118C1047.14 434.312 1017.52 393.806 1016.76 339.425C1016.14 296.121 1029.26 247.782 1056.89 191.61C1073.54 157.818 1089.81 130.851 1106.69 109.031C1172.3 24.438 1263.47 6.75845 1328.39 6.75844C1337.29 6.75844 1346.42 7.09413 1355.55 7.76552C1422.85 12.577 1497.74 62.8182 1555.91 142.376C1616.15 225.067 1650.76 327.34 1653.21 430.284C1657.97 632.368 1576.71 838.144 1464.13 908.974C1443.57 921.842 1423.85 928.444 1405.51 928.444L1404.59 928.444Z" fill="url(#paint12_linear_50_59)"/>
    </mask>
    <g mask="url(#mask0_50_59)">
    <g filter="url(#filter0_f_50_59)">
    <circle cx="1294.46" cy="267.473" r="328.818" transform="rotate(1.53506 1294.46 267.473)" fill="#0B5EFF"/>
    <circle cx="1484.36" cy="142.062" r="124.698" transform="rotate(1.53506 1484.36 142.062)" fill="#4200FF"/>
    <circle cx="1308.61" cy="283.973" r="80.1903" transform="rotate(1.53506 1308.61 283.973)" fill="#4200FF"/>
    <circle cx="1430.06" cy="220.442" r="80.1903" transform="rotate(1.53506 1430.06 220.442)" fill="#FF20B9"/>
    <circle cx="1492.34" cy="302.714" r="80.1903" transform="rotate(1.53506 1492.34 302.714)" fill="#FF20B9"/>
    <circle cx="1392.82" cy="349.944" r="80.1903" transform="rotate(1.53506 1392.82 349.944)" fill="black"/>
    <circle cx="1350.44" cy="155.362" r="80.1903" transform="rotate(1.53506 1350.44 155.362)" fill="black"/>
    <circle cx="1226.11" cy="168.534" r="85.1782" transform="rotate(1.53506 1226.11 168.534)" fill="black"/>
    <circle cx="1505.25" cy="551.394" r="85.1782" transform="rotate(1.53506 1505.25 551.394)" fill="#0B5EFF"/>
    <circle cx="1240.62" cy="429.155" r="114.338" transform="rotate(1.53506 1240.62 429.155)" fill="black"/>
    <circle cx="1056.11" cy="124.061" r="114.338" transform="rotate(1.53506 1056.11 124.061)" fill="black"/>
    <circle cx="1084.04" cy="113.295" r="119.71" transform="rotate(1.53506 1084.04 113.295)" fill="black"/>
    </g>
    </g>
    <mask id="mask1_50_59" style="mask-type:alpha" maskUnits="userSpaceOnUse" x="-219" y="411" width="905" height="1209">
    <path fill-rule="evenodd" clip-rule="evenodd" d="M287.717 1027.25L288.107 1027.89L287.891 1023.01C287.882 1022.22 287.746 1021.48 287.576 1020.55C286.256 1013.37 281.14 1010.43 276.443 1007.72L276.362 1007.67C271.356 1004.86 266.798 1002.28 265.539 995.429C265.437 994.874 265.301 994.133 265.326 993.528C265.316 992.738 265.146 991.812 265.01 991.071C264.092 986.072 261.371 982.373 258.042 981.292C256.729 980.813 255.196 980.618 253.824 980.559C243.689 980.947 231.352 992.316 230.466 1006.75C230.19 1010.43 230.49 1014.28 231.17 1017.99C232.327 1024.28 234.694 1030.5 238.103 1035.72C244.529 1045.51 253.586 1051.1 262.798 1050.87C269.302 1050.71 278.816 1046.2 283.949 1037.85C285.987 1034.87 287.22 1031.21 287.717 1027.25ZM241.9 1030.46C239.238 1026.34 237.236 1021.37 236.215 1015.82C235.705 1013.04 235.575 1010.11 235.734 1007.27C236.293 997.728 246.387 988.227 253.847 988.091C257.226 987.961 259.285 989.538 259.931 993.056C259.999 993.426 260.067 993.796 260.042 994.402C260.12 995.562 260.29 996.488 260.494 997.599C262.399 1007.97 269.109 1011.89 274.565 1014.92L274.61 1014.95C278.538 1017.16 281.853 1019.04 282.531 1022.72L282.701 1023.65C282.771 1027 281.919 1030.5 280.193 1032.96C275.999 1039.76 268.102 1043.44 262.809 1043.53C254.9 1043.44 247.352 1038.65 241.9 1030.46Z" fill="url(#paint13_linear_50_59)"/>
    <path fill-rule="evenodd" clip-rule="evenodd" d="M305.85 990.395C312.392 996.372 317.183 1005.41 319.318 1016.29C320.509 1022.77 320.65 1029.46 319.8 1035.94L319.328 1039.3C316.801 1055.17 309.446 1069.96 298.574 1081.15C288.269 1091.72 275.429 1098.13 264.049 1098.41C256.013 1098.37 247.807 1097.41 239.88 1095.75C238.906 1095.63 237.955 1095.46 237.004 1095.28C236.054 1095.11 235.103 1094.93 234.129 1094.82C223.458 1093.03 213.925 1084.85 206.623 1071.04C201.866 1062.18 198.131 1050.74 195.851 1038.33C193.299 1024.45 192.559 1010.05 193.903 996.628C195.406 980.364 202.141 964.437 212.741 951.762C221.987 940.609 233.353 933.588 242.092 933.745C244.006 933.791 245.861 934.257 247.749 934.909C253.323 937.097 257.942 942.237 261.022 949.369C266.358 961.374 275.263 967.618 285.675 974.663C292.614 979.096 299.435 984.368 305.85 990.395ZM230.04 1085.9C231.641 1086.46 233.242 1087.03 234.775 1087.22C235.457 1087.33 236.161 1087.45 236.877 1087.58C238.075 1087.79 239.307 1088.01 240.525 1088.15C248.292 1089.68 256.21 1090.56 263.991 1090.69C284.872 1090.27 310.815 1067.04 314.65 1034.58C315.382 1028.94 315.191 1023.46 314.239 1018.27C312.64 1009.57 308.857 1002.32 303.052 996.648C296.832 990.942 290.299 985.755 283.521 981.458C272.338 973.92 262.662 967.183 256.571 953.291C253.423 945.789 248.11 941.316 242.115 941.277C227.288 941.316 202.184 965.412 199.112 997.57C197.954 1010.52 198.548 1023.39 200.862 1035.98L201.1 1037.28C203.039 1047.83 206.342 1057.65 210.811 1066.42C215.544 1075.89 222.383 1082.74 230.04 1085.9Z" fill="url(#paint14_linear_50_59)"/>
    <path fill-rule="evenodd" clip-rule="evenodd" d="M217.545 1141.58C223.482 1142.04 229.74 1142.77 235.329 1143.56C245.263 1145.04 255.222 1145.91 265.137 1145.81C282.733 1145.28 301.879 1135.42 317.945 1118.43C334.925 1100.48 346.794 1076.2 351.336 1049.82L351.665 1047.9C353.814 1035.16 353.786 1021.67 351.599 1009.03C348.843 994.037 342.473 980.848 333.727 971.764C319.913 957.317 306.255 948.166 294.013 940.051L293.673 939.825C278.781 929.923 266.051 921.458 256.659 905.63C251.681 897.057 245.071 890.71 237.575 887.685C234.212 886.419 230.824 885.758 227.353 886.123C214.61 887.133 198.353 898.644 184.937 915.991C169.669 935.847 159.689 960.782 157.11 986C154.91 1008.09 155.487 1030.49 158.96 1052.35C159.143 1053.35 159.296 1054.36 159.452 1055.39C159.615 1056.46 159.781 1057.56 159.99 1058.7C163.698 1078.88 169.708 1096.77 177.391 1110.44C188.297 1129.79 202.099 1140.47 217.545 1141.58ZM265.207 1138.04C255.419 1138.1 245.621 1137.36 235.941 1135.78C229.937 1134.95 223.805 1134.18 217.903 1133.9C214.584 1133.61 211.323 1132.9 208.121 1131.77C198.321 1128.06 189.677 1119.53 182.325 1106.92L181.74 1105.96C174.642 1093.26 168.929 1076.24 165.357 1056.8C161.172 1034.02 160.298 1010.75 162.582 987.632C165.052 964.045 174.288 940.988 188.643 922.084C201.144 905.69 216.2 895.045 227.859 894.061C237.097 893.23 245.967 899.289 252.861 910.884C263.044 928.014 276.283 936.89 291.687 947.218L291.961 947.401C303.882 955.246 317.251 964.31 330.709 978.301C338.617 986.522 344.138 998.058 346.588 1011.39C348.595 1022.31 348.571 1034.03 346.642 1046.49C337.78 1101.95 297.469 1137.34 265.207 1138.04Z" fill="url(#paint15_linear_50_59)"/>
    <path fill-rule="evenodd" clip-rule="evenodd" d="M384.203 1002.05C387.342 1019.87 387.189 1039.78 383.564 1060.05C377.007 1096.94 360.658 1130.91 337.638 1155.98C316.157 1179.06 290.198 1192.57 266.641 1193.24C254.304 1193.5 241.822 1192.23 229.72 1190.8C220.684 1189.77 210.564 1188.76 201.123 1188.48C180.901 1188.05 162.668 1174.73 148.481 1150.11C138.068 1131.95 129.749 1107.42 124.612 1079.46C118.522 1046.32 117.112 1009.76 120.776 976.383C124.432 942.211 137.529 908.319 157.558 881.046C174.948 857.185 196.257 841.319 213.004 839.141C218.067 838.552 223.115 839.358 228.078 841.189C237.497 845.05 245.971 852.653 252.754 862.902C266.102 882.405 282.864 893.282 302.246 905.86L303.344 906.574C321.054 918.079 341.093 931.098 361.672 953.502C372.521 965.139 380.528 982.054 384.032 1001.12L384.203 1002.05ZM129.403 1077.39C134.336 1104.24 142.324 1127.71 152.313 1145.04L153.127 1146.51C162.463 1162.51 173.649 1173.02 186.109 1177.88C190.946 1179.76 195.9 1180.8 200.938 1180.81C210.507 1181.04 220.373 1182.15 229.824 1183.22C241.925 1184.64 254.154 1186.02 266.33 1185.63C309.523 1184.43 364.76 1135.46 378.474 1058.27C381.98 1038.84 382.152 1020.51 379.124 1004.03C375.823 986.075 368.664 970.814 358.46 959.719C338.1 937.582 318.068 924.599 300.333 913.106L300.206 913.024L299.256 912.403C279.705 899.627 262.748 888.546 248.956 868.156C238.511 852.79 225.956 845.193 213.442 846.709C197.744 848.675 177.706 864.046 161.034 886.633C141.758 912.819 129.311 945.067 125.765 977.609C122.227 1010.94 123.381 1044.62 129.403 1077.39Z" fill="url(#paint16_linear_50_59)"/>
    <path fill-rule="evenodd" clip-rule="evenodd" d="M184.09 1235.02C196.876 1234.99 210.189 1236.34 223.12 1237.83C224.266 1237.95 225.415 1238.06 226.566 1238.18C240.038 1239.54 253.845 1240.93 267.442 1240.56C297.087 1239.69 329.572 1222.44 356.594 1193.22C385.663 1161.82 406.467 1118.77 415.303 1072.05C419.839 1047.86 420.742 1023.89 417.752 1002.44L417.786 1002.62L417.062 997.943L416.28 993.684C411.993 970.355 402.348 949.715 389.203 935.205C361.598 904.526 334.743 887.371 311.014 872.212L310.316 871.766C286.289 856.547 265.634 843.383 248.527 819.904C240.067 807.929 229.568 798.934 218.099 794.287C211.627 791.656 204.954 790.889 198.333 791.889C177.547 795.049 151.255 815.641 129.695 845.695C104.871 880.2 88.6567 923.049 83.7978 966.224C79.4444 1006.22 80.3582 1046.75 86.2673 1086.31C86.9909 1090.99 87.7485 1095.85 88.5991 1100.48C95.0974 1135.84 105.496 1166.51 118.766 1189.11C136.556 1219.27 159.059 1235.08 184.09 1235.02ZM184.033 1227.31C177.242 1227.38 170.466 1226.06 163.902 1223.66C148.528 1217.76 134.63 1204.34 122.886 1184.12C110.005 1162.17 99.8703 1132.19 93.542 1097.76C85.8097 1054.94 84.2834 1011.08 89.0402 967.351C93.6294 925.67 109.447 884.365 133.392 850.998C154.199 822.032 179.289 802.306 198.898 799.407C214.654 797.021 230.929 806.34 244.925 825.479C262.462 849.348 283.226 862.695 307.178 878.091L308.197 878.746C331.775 893.744 358.598 910.848 386.083 941.187C398.551 954.969 407.254 974.191 411.405 996.78C415.488 1019 415.111 1044.35 410.178 1070.09C391.276 1170.15 322.661 1231.49 267.258 1232.89C252.626 1233.25 237.654 1231.76 223.224 1230.25C210.419 1228.71 197.107 1227.36 184.033 1227.31Z" fill="url(#paint17_linear_50_59)"/>
    <path fill-rule="evenodd" clip-rule="evenodd" d="M450.541 994.983C454.493 1022.41 453.316 1053.04 447.261 1083.78C436.181 1140.5 410.922 1192.64 375.931 1230.32C343.367 1265.66 304.196 1286.53 268.463 1287.59C251.825 1288.04 235.046 1286.39 218.759 1284.78C217.947 1284.7 217.135 1284.62 216.325 1284.54C215.756 1284.49 215.187 1284.43 214.617 1284.37C213.975 1284.31 213.331 1284.25 212.687 1284.18L212.67 1284.18C197.611 1282.68 182.223 1281.15 167.184 1281.52C152.137 1281.84 137.095 1277 123.623 1267.38C110.405 1257.66 98.9631 1244.27 89.3979 1227.77C73.3631 1200.5 60.7243 1163.56 52.865 1120.79C51.7763 1114.87 50.6875 1108.94 49.8187 1102.73C42.7845 1054.09 41.8632 1004.64 47.1662 955.731C53.0676 903.417 72.5602 851.746 102.146 809.825C127.714 773.442 159.024 748.31 183.848 744.167C192.026 742.757 200.232 743.719 208.305 746.915C220.892 751.721 233.382 761.922 244.486 776.436C265.207 803.553 289.721 818.933 318.066 836.717L318.332 836.883C348.171 855.587 382.025 876.889 417.012 916.204C432.582 933.537 443.898 958.088 448.933 985.491L449.239 987.157C449.426 988.175 449.573 989.16 449.72 990.144C449.867 991.129 450.014 992.113 450.201 993.131L450.541 994.983ZM52.3157 957.093C46.4665 1011.17 48.3993 1065.39 58.0029 1118.39C65.7942 1160.79 78.0089 1196.9 93.3566 1222.65C107.534 1246.48 123.881 1262.12 142.076 1269.3C150.275 1272.45 158.71 1273.91 167.254 1273.75C182.328 1273.51 197.718 1274.98 212.787 1276.43L212.822 1276.43C214.154 1276.56 215.483 1276.69 216.81 1276.81C217.563 1276.89 218.318 1276.97 219.073 1277.04C235.287 1278.7 251.991 1280.41 268.406 1279.87C335.155 1278 418.442 1203.19 442.068 1081.44C448.452 1048.78 449.137 1016.96 443.999 989.006C439.032 961.974 428.53 938.89 413.766 922.235C379.169 883.561 345.763 862.481 316.246 844.048C287.34 825.973 262.415 810.311 240.952 782.381C223.405 759.47 203.319 748.664 184.447 751.871C139.193 759.63 65.1609 843.326 52.3157 957.093Z" fill="url(#paint18_linear_50_59)"/>
    <path fill-rule="evenodd" clip-rule="evenodd" d="M479 1095.79C471.975 1130.88 460.968 1163.56 446.224 1192.93C417.828 1249.47 379.005 1292.22 333.976 1316.76C313.316 1328.01 291.61 1334.31 269.586 1335.17C249.789 1335.57 229.583 1333.74 210.174 1331.79L210.047 1331.84C190.476 1329.77 170.11 1327.8 150.507 1328.52C133.073 1329.18 115.473 1323.75 99.8152 1312.6C84.4116 1301.36 71.0622 1285.73 59.9369 1266.66C41.0447 1234.95 26.2923 1191.7 17.0721 1141.52C15.7452 1134.3 14.5113 1126.85 13.4043 1119.34C5.18594 1062.03 4.09634 1003.52 10.4759 945.657C17.5807 884.34 40.2835 823.477 74.5375 774.374C88.9664 753.654 105.151 735.821 122.743 721.208C139.109 708.067 155.241 699.581 169.338 697.049C179.235 695.365 189.101 696.472 198.647 700.283C213.157 705.925 227.189 717.112 240.455 733.758C264.915 764.186 293.258 781.843 326.042 802.266L327.359 803.087C362.907 825.244 403.05 850.265 444.797 897.806C462.629 917.827 475.583 946.105 481.401 977.766L481.809 979.988C482.353 982.95 482.864 985.727 483.281 988.739L483.562 991.011C487.891 1023.45 486.362 1059.57 479 1095.79ZM210.532 1324.11C229.941 1326.06 249.893 1327.98 269.529 1327.46C347.532 1325.36 445.363 1237.12 474.222 1093.49C482.217 1054.05 483.142 1015.39 476.984 981.873C471.166 950.212 458.993 923.217 441.838 903.923C400.315 856.786 360.159 831.834 324.727 809.817L324.491 809.671C292.408 789.86 262.281 771.07 237.174 739.604C215.983 713.156 192.178 700.627 170.064 704.704C142.412 709.753 107.287 738.559 78.3018 780.047C44.8006 828.063 22.6215 887.332 15.7863 947.155C8.68386 1011.45 10.8962 1076.07 22.337 1139.07C31.4892 1188.88 45.8175 1231.3 63.9636 1261.92L64.7436 1263.2C80.8374 1290.05 99.5995 1307.72 120.42 1315.86C130.22 1319.57 140.349 1321.37 150.484 1320.98C170.214 1320.22 190.707 1322.14 210.405 1324.16L210.532 1324.11Z" fill="url(#paint19_linear_50_59)"/>
    <path fill-rule="evenodd" clip-rule="evenodd" d="M133.67 1375.38C113.814 1376.19 93.9094 1370.08 75.973 1357.64C59.2906 1346.1 43.9751 1328.66 30.2556 1305.85C8.63322 1269.64 -8.39388 1219.94 -18.9749 1162.36C-20.54 1153.84 -22.0462 1144.9 -23.2643 1136.05C-32.6917 1070.68 -33.9272 999.52 -26.5027 935.498C-18.3554 865.042 7.59163 795.173 46.6408 738.837C62.947 715.003 81.4914 694.462 101.546 677.696C120.213 662.266 138.597 652.702 154.633 649.612C166.088 647.517 177.486 648.819 188.633 653.195C191.869 654.51 195.139 656.011 198.477 657.882C212.311 665.773 224.971 676.9 236.262 690.944C264.462 725.171 298.248 746.103 334.153 768.191L334.98 768.702C376.526 794.333 423.468 823.292 472.42 879.274C492.516 901.983 507.301 934.307 513.868 970.042L514.31 972.448C515.025 976.337 515.646 980.46 516.234 984.397L516.37 985.138C521.397 1022.86 519.492 1065.08 510.831 1107.56C502.684 1147.65 489.852 1185.21 472.927 1219.01C440.355 1283.93 395.897 1333.05 344.343 1361.33C320.772 1374.51 295.95 1381.63 270.675 1382.57C248.202 1383.22 225.346 1381.03 203.32 1378.92C180.302 1376.61 156.616 1374.35 133.67 1375.38ZM98.5345 1361.92C109.936 1366.2 121.724 1368.14 133.486 1367.71C156.72 1366.77 180.66 1368.93 203.643 1371.06C225.67 1373.17 248.365 1375.22 270.584 1374.67C359.806 1372.16 472.216 1270.69 505.799 1105.36C515.279 1059.19 516.478 1013.87 509.265 974.618C502.631 938.514 488.786 907.608 469.334 885.441C420.701 829.629 373.749 800.744 332.321 775.257L331.449 774.719C295.546 752.56 261.662 731.647 233.108 696.741C208.366 666.52 180.749 652.505 155.52 657.401C123.796 663.248 83.6525 696.594 50.5322 744.461C12.2357 799.708 -13.1536 868.169 -21.0652 936.946C-29.421 1011.45 -26.9292 1086.48 -13.6512 1159.48C-3.10403 1216.88 13.4989 1265.76 34.3753 1300.86L35.1554 1302.15C53.5553 1332.66 74.9274 1352.69 98.5345 1361.92Z" fill="url(#paint20_linear_50_59)"/>
    <path fill-rule="evenodd" clip-rule="evenodd" d="M196.432 1425.87L196.559 1425.82C221.202 1428.1 246.674 1430.45 271.73 1429.79C298.792 1428.94 326.729 1421 354.711 1405.9C383.04 1390.46 409.611 1369.17 433.857 1342.63C459.018 1315.14 481.185 1282.46 499.665 1245.28C518.771 1207.05 533.334 1164.85 542.696 1119.52C552.514 1072.22 554.871 1025.06 549.536 982.697L549.153 979.87C548.454 974.587 547.628 969.353 546.71 964.354C538.952 922.139 523.309 887.372 500.205 860.877C443.943 796.139 389.959 763.056 342.304 734.049L342.144 733.95C302.029 709.399 264.066 686.165 232.323 648.032C219.515 632.397 205.118 619.964 189.522 611.373C186.058 609.551 182.466 607.78 178.976 606.563C166.321 601.387 153.17 600.175 140.157 602.68C122.149 606.144 101.581 617.157 80.6718 634.455C58.1547 653.373 37.4111 676.759 19.0666 703.572C-24.7439 767.324 -53.9691 846.015 -63.032 925.561C-71.44 998.301 -70.2221 1078.99 -59.4836 1152.98C-58.0273 1163.13 -56.283 1173.36 -54.4798 1183.17C-42.5038 1248.35 -23.2701 1304.14 0.955611 1344.88C16.1083 1370.31 33.2969 1389.79 52.0042 1402.72C72.1265 1416.69 94.5884 1423.39 116.798 1422.06C142.347 1420.75 168.724 1423.25 194.214 1425.66L196.432 1425.87ZM4.91429 1339.76C-18.6923 1300.16 -37.5359 1245.02 -49.478 1180.03C-64.5003 1096.8 -67.3646 1011.59 -57.7895 926.688C-48.8354 848.772 -20.1678 771.489 22.8898 708.825C60.0527 654.815 105.341 616.878 140.942 609.914C177.432 602.603 208.962 629.773 229.008 653.692C261.16 692.231 299.048 715.487 339.113 740.08L340.278 740.794C387.645 769.716 441.179 802.577 497.051 866.674C518.927 891.664 534.443 926.481 541.928 967.214C550.195 1012.21 548.688 1063.99 537.758 1117.08C499.104 1304.43 372.148 1419.33 271.673 1422.07C246.905 1422.82 221.432 1420.47 196.916 1418.14L196.789 1418.19L194.518 1417.98C168.918 1415.62 142.433 1413.17 116.775 1414.52C103.295 1415.23 89.8465 1413.14 76.8105 1408.11C50.2897 1397.84 26.4006 1375.22 5.66032 1340.86L4.91429 1339.76Z" fill="url(#paint21_linear_50_59)"/>
    <path fill-rule="evenodd" clip-rule="evenodd" d="M189.798 1472.71L190.086 1472.8C217.218 1475.3 245.308 1477.82 272.819 1477.19C303.005 1476.31 334.024 1467.36 365.239 1450.6C396.767 1433.32 426.308 1409.68 453.101 1379.96C481.096 1349.37 505.673 1312.78 526.275 1271.59C547.596 1229.13 563.824 1181.91 574.435 1131.53C585.585 1078.15 588.319 1024.89 582.285 977.244L582.105 975.528C581.271 969.504 580.402 963.295 579.313 957.37L579.177 956.63C575.741 937.929 570.654 919.874 564.018 903.019C554.659 879.489 542.465 859.051 527.828 842.345C464.532 769.362 403.783 732.403 350.204 699.805L350.007 699.685C305.563 672.599 263.559 646.94 228.13 605.218C213.806 587.994 197.833 574.39 180.407 564.728C176.654 562.821 172.901 560.914 169.123 559.611C154.867 553.87 140.183 552.463 125.452 555.243C105.505 559.266 82.7202 571.542 59.6022 590.893C34.6568 612.15 11.6799 638.193 -8.66882 668.171C-57.2745 739.155 -89.5831 826.989 -99.8835 915.352C-109.309 996.627 -107.982 1086.8 -96.0251 1169.64C-94.2966 1181.27 -92.4751 1192.66 -90.4337 1203.77C-77.0968 1276.35 -55.7155 1338.64 -28.6325 1383.82C-11.7586 1411.96 7.30297 1433.48 28.0352 1447.81C50.3094 1463.12 75.2021 1470.46 99.8334 1468.97C129.596 1467.26 160.175 1470 189.798 1472.71ZM-24.5128 1378.84C-50.9767 1334.81 -71.968 1273.16 -85.3049 1200.58C-102.164 1107.35 -105.308 1011.73 -94.607 916.664C-84.5763 829.795 -52.6645 743.505 -4.81158 673.61C36.4868 613.221 86.6655 570.794 126.305 562.847C166.833 554.553 202.287 584.557 224.883 611.25C260.991 653.699 303.317 679.628 348.21 706.936L348.439 707.076C401.562 739.447 461.849 776.185 524.615 848.562C548.788 876.425 566.068 914.918 574.404 960.28C583.692 1010.83 581.945 1069.46 569.403 1129.32C525.991 1338.18 384.457 1466.31 272.762 1469.47C245.285 1470.28 217.322 1467.71 190.028 1465.08L188.901 1464.98C159.626 1462.3 129.286 1459.52 99.7423 1461.07C84.5436 1462.04 69.4013 1459.63 54.7305 1453.85C25.2958 1442.53 -1.39827 1417.24 -24.5128 1378.84Z" fill="url(#paint22_linear_50_59)"/>
    <path fill-rule="evenodd" clip-rule="evenodd" d="M375.606 1495.17C410.367 1476.23 442.845 1450.05 472.345 1417.29C503.14 1383.43 530.322 1343.24 553.012 1297.86C576.514 1250.97 594.44 1198.92 606.266 1143.3C618.749 1083.85 621.859 1024.49 615.253 971.507L615.151 970.952C614.239 963.767 613.073 956.682 611.848 950.016L611.712 949.276C607.97 928.909 602.484 909.422 595.322 891.185C585.105 865.212 571.708 842.664 555.646 824.134C485.101 742.707 417.789 701.77 358.251 665.561L357.851 665.318C309.192 635.766 263.293 607.89 224.098 562.541C207.096 542.592 189.42 527.868 171.359 518.454C167.445 516.411 163.438 514.603 159.466 512.98C143.609 506.673 127.265 505.121 110.976 508.311C89.0904 512.893 64.0879 526.432 38.6346 547.887C11.2269 571.296 -13.9833 599.998 -36.3364 633.141C-61.2355 669.461 -82.5404 710.528 -99.6254 755.305C-117.835 802.109 -130.165 852.767 -136.633 905.699C-146.89 995.038 -145.419 1094.88 -132.279 1186.38C-130.439 1199.36 -128.345 1212.23 -126.066 1224.64C-111.368 1304.62 -87.746 1373.18 -57.9327 1422.86C-39.3377 1453.69 -18.403 1477.26 4.32012 1492.79C28.9072 1509.58 56.1966 1517.37 83.2156 1515.55C116.069 1513.63 150.129 1516.79 182.943 1519.84L184.401 1519.97C213.7 1522.6 244.055 1525.32 273.908 1524.59C307.185 1523.49 341.319 1513.73 375.606 1495.17ZM-121.098 1221.31C-139.829 1117.89 -143.218 1012.06 -131.298 906.591C-120.097 810.534 -85.0684 715.286 -32.4201 638.159C12.9207 571.626 68.244 524.61 111.888 515.495C127.508 512.369 143.149 513.799 158.303 519.983C179.411 528.206 200.484 544.382 220.944 568.337C260.664 614.287 306.896 642.436 355.888 672.266L356.211 672.463C415.438 708.407 482.445 749.073 552.366 829.98C578.963 860.666 597.787 903.121 606.939 952.926C617.282 1009.21 615.354 1074.26 601.234 1141.1C551.031 1380.39 395.012 1513.39 273.85 1516.87C245.221 1517.66 215.973 1515.09 187.443 1512.59C186.018 1512.46 184.595 1512.34 183.174 1512.21L182.089 1512.11C149.485 1509.14 115.809 1506.07 83.0655 1508.07C66.241 1509.08 49.4389 1506.52 33.0402 1500.23C0.657829 1487.68 -28.6802 1459.85 -53.94 1417.92C-83.1682 1369.21 -106.4 1301.29 -121.098 1221.31Z" fill="url(#paint23_linear_50_59)"/>
    <path fill-rule="evenodd" clip-rule="evenodd" d="M-173.137 895.156C-166.672 839.248 -153.025 783.908 -132.847 730.779C-114.089 681.777 -90.9163 636.804 -63.7589 597.22C-38.6149 560.011 -10.3506 527.932 17.912 503.991C45.5736 480.483 72.7596 465.495 96.6176 460.539C114.465 456.939 132.341 458.686 149.833 465.743C153.933 467.316 158.261 469.395 162.463 471.524C182.032 481.738 201.479 497.953 220.125 519.442C262.862 568.553 313.017 598.925 365.934 630.97L367.373 631.843C432.478 671.386 506.264 716.201 583.397 805.552C601.009 825.857 615.645 850.699 626.719 879.116C634.28 898.784 640.233 920.073 644.248 941.921L644.418 942.847C645.847 950.623 647.056 958.684 648.138 966.794L648.172 966.979C655.443 1025.06 652.016 1090.1 638.165 1155.44C625.251 1216.25 605.593 1272.95 579.911 1324.26C555.039 1374.06 525.413 1417.98 491.784 1454.94C459.577 1490.74 424.002 1519.32 386.168 1540.06C348.775 1560.23 311.432 1571.05 275.158 1572.12C242.261 1573.07 208.777 1570.08 176.377 1567.06C140.243 1563.71 102.864 1560.26 66.5389 1562.55C37.0983 1564.52 7.37811 1556.09 -19.3609 1537.96C-44.109 1521.04 -67.0436 1495.47 -87.2329 1461.89C-119.903 1407.78 -145.639 1332.9 -161.732 1245.32C-164.284 1231.43 -166.615 1217.26 -168.693 1202.99C-183.145 1102.87 -184.598 993.498 -173.137 895.156ZM176.413 1559.11L176.5 1561.06L176.54 1559.06L179.528 1559.32C210.956 1562.07 243.266 1564.9 274.905 1564.08C430.462 1559.66 584.447 1383.01 633.193 1152.82C648.925 1079.2 651.126 1007.5 639.729 945.473C629.76 891.223 609.137 844.907 580.243 811.348C503.384 722.307 429.825 677.714 364.892 638.35L364.25 637.96L363.798 637.687L363.797 637.686L363.796 637.686L363.795 637.685C310.531 605.481 260.185 575.04 216.972 525.239C194.545 499.472 171.574 481.855 148.577 472.981C131.823 466.231 114.522 464.656 97.3436 468.193C48.9929 478.353 -9.83356 528.524 -60.0626 602.523C-117.472 687.067 -155.745 791.321 -168.022 896.333C-181.105 1008.8 -177.203 1131.5 -156.959 1241.67C-140.866 1329.25 -115.36 1403.62 -83.4351 1456.63L-83.0451 1457.27C-55.6741 1502.54 -23.9211 1532.4 11.1212 1546.1C29.1207 1552.96 47.6165 1555.85 66.1598 1554.56C102.645 1552.41 140.152 1555.81 176.413 1559.11Z" fill="url(#paint24_linear_50_59)"/>
    <path fill-rule="evenodd" clip-rule="evenodd" d="M-3.03059 460.379C-33.6285 486.424 -64.2191 521.396 -91.4013 561.585C-120.749 604.803 -145.824 653.495 -166.162 706.488C-188.106 764.078 -202.782 824.186 -209.862 884.898C-222.433 992.009 -220.744 1110.81 -205.235 1219.65C-203.012 1235.45 -200.442 1250.92 -197.686 1265.92C-180.232 1360.9 -152.222 1442.23 -116.821 1500.83C-94.9446 1536.94 -70.2638 1564.6 -43.3638 1582.86C-14.3459 1602.29 17.805 1611.35 49.6332 1609.04C89.1754 1606.49 130.001 1610.18 169.455 1613.82L172.401 1614.08C206.351 1617.05 241.571 1620.14 276.051 1619.2C315.324 1618.14 355.875 1606.27 396.468 1584.26C437.535 1561.86 476.046 1530.74 510.96 1491.9C547.389 1451.67 579.586 1403.96 606.58 1350.15C634.444 1294.42 655.8 1232.89 669.963 1167.03C685.087 1096.03 688.958 1025.26 681.15 962.032C680.024 952.947 678.645 943.96 677.046 935.258L676.876 934.332C672.555 910.818 666.203 888.098 658.048 866.677C646.083 835.632 630.277 808.866 611.113 786.785C526.372 688.524 445.55 639.732 374.073 596.617C316.692 562.082 262.489 529.284 216.026 476.394C195.574 453.229 174.551 435.844 153.348 424.88C148.985 422.615 144.402 420.635 139.98 418.791C121.015 411.119 101.478 409.227 81.9466 413.286C56.277 418.752 26.8735 435.003 -3.03059 460.379ZM82.7997 420.891C101.57 417.129 120.369 418.714 138.759 426.214C163.679 435.925 188.513 454.798 212.94 482.561C259.954 536.227 314.446 569.112 372.148 603.917L372.573 604.174C443.497 647.005 523.845 695.527 607.901 793.001L608.613 793.914C639.482 830.075 661.454 880.031 672.171 938.354C684.59 1005.93 682.114 1084.29 664.931 1164.83C611.756 1414.61 444.523 1606.56 275.994 1611.48C242.087 1612.54 207.428 1609.5 173.869 1606.55L169.686 1606.19C130.105 1602.6 89.2792 1598.91 49.4491 1601.37C-13.3866 1605.28 -68.1003 1569.71 -112.862 1495.71C-147.644 1438.26 -175.264 1357.57 -192.786 1262.22C-214.833 1142.24 -219.083 1008.76 -204.712 886.26C-191.359 772.294 -149.876 658.848 -87.671 567.073C-33.3065 486.695 30.4106 432.033 82.7997 420.891Z" fill="url(#paint25_linear_50_59)"/>
    </mask>
    <g mask="url(#mask1_50_59)">
    <g filter="url(#filter1_f_50_59)">
    <circle cx="424.3" cy="583.922" r="328.818" transform="rotate(180 424.3 583.922)" fill="#0F003A"/>
    <circle cx="118.118" cy="562.435" r="80.1903" transform="rotate(180 118.118 562.435)" fill="#FF20B9"/>
    <circle cx="409.719" cy="567.807" r="80.1903" transform="rotate(180 409.719 567.807)" fill="#0F003A"/>
    <circle cx="225.55" cy="553.994" r="80.1903" transform="rotate(180 225.55 553.994)" fill="#FF20B9"/>
    <circle cx="323.774" cy="504.115" r="80.1903" transform="rotate(180 323.774 504.115)" fill="#792170"/>
    <circle cx="180.659" cy="433.901" r="85.1782" transform="rotate(180 180.659 433.901)" fill="#0F003A"/>
    <circle cx="473.795" cy="420.856" r="114.338" transform="rotate(180 473.795 420.856)" fill="#00B2FF"/>
    <circle cx="4.9312" cy="625.744" r="85.1782" transform="rotate(180 4.9312 625.744)" fill="#0F003A"/>
    <circle cx="46.3697" cy="436.97" r="85.1782" transform="rotate(180 46.3697 436.97)" fill="#0F003A"/>
    </g>
    </g>
    </g>
    <defs>
    <filter id="filter0_f_50_59" x="741.775" y="-261.347" width="1258.21" height="1101.04" filterUnits="userSpaceOnUse" color-interpolation-filters="sRGB">
    <feFlood flood-opacity="0" result="BackgroundImageFix"/>
    <feBlend mode="normal" in="SourceGraphic" in2="BackgroundImageFix" result="shape"/>
    <feGaussianBlur stdDeviation="100" result="effect1_foregroundBlur_50_59"/>
    </filter>
    <filter id="filter1_f_50_59" x="-280.247" y="20.5717" width="1260.99" height="1092.17" filterUnits="userSpaceOnUse" color-interpolation-filters="sRGB">
    <feFlood flood-opacity="0" result="BackgroundImageFix"/>
    <feBlend mode="normal" in="SourceGraphic" in2="BackgroundImageFix" result="shape"/>
    <feGaussianBlur stdDeviation="100" result="effect1_foregroundBlur_50_59"/>
    </filter>
    <linearGradient id="paint0_linear_50_59" x1="1689.26" y1="523.928" x2="1129.41" y2="375.472" gradientUnits="userSpaceOnUse">
    <stop stop-color="#FC5050"/>
    <stop offset="0.56" stop-color="#7E4CA8"/>
    <stop offset="1" stop-color="#0048FF"/>
    </linearGradient>
    <linearGradient id="paint1_linear_50_59" x1="1689.26" y1="523.928" x2="1129.41" y2="375.472" gradientUnits="userSpaceOnUse">
    <stop stop-color="#FC5050"/>
    <stop offset="0.56" stop-color="#7E4CA8"/>
    <stop offset="1" stop-color="#0048FF"/>
    </linearGradient>
    <linearGradient id="paint2_linear_50_59" x1="1689.26" y1="523.928" x2="1129.41" y2="375.472" gradientUnits="userSpaceOnUse">
    <stop stop-color="#FC5050"/>
    <stop offset="0.56" stop-color="#7E4CA8"/>
    <stop offset="1" stop-color="#0048FF"/>
    </linearGradient>
    <linearGradient id="paint3_linear_50_59" x1="1689.26" y1="523.928" x2="1129.41" y2="375.472" gradientUnits="userSpaceOnUse">
    <stop stop-color="#FC5050"/>
    <stop offset="0.56" stop-color="#7E4CA8"/>
    <stop offset="1" stop-color="#0048FF"/>
    </linearGradient>
    <linearGradient id="paint4_linear_50_59" x1="1689.26" y1="523.928" x2="1129.41" y2="375.472" gradientUnits="userSpaceOnUse">
    <stop stop-color="#FC5050"/>
    <stop offset="0.56" stop-color="#7E4CA8"/>
    <stop offset="1" stop-color="#0048FF"/>
    </linearGradient>
    <linearGradient id="paint5_linear_50_59" x1="1689.26" y1="523.928" x2="1129.41" y2="375.472" gradientUnits="userSpaceOnUse">
    <stop stop-color="#FC5050"/>
    <stop offset="0.56" stop-color="#7E4CA8"/>
    <stop offset="1" stop-color="#0048FF"/>
    </linearGradient>
    <linearGradient id="paint6_linear_50_59" x1="1689.26" y1="523.928" x2="1129.41" y2="375.472" gradientUnits="userSpaceOnUse">
    <stop stop-color="#FC5050"/>
    <stop offset="0.56" stop-color="#7E4CA8"/>
    <stop offset="1" stop-color="#0048FF"/>
    </linearGradient>
    <linearGradient id="paint7_linear_50_59" x1="1689.26" y1="523.928" x2="1129.41" y2="375.472" gradientUnits="userSpaceOnUse">
    <stop stop-color="#FC5050"/>
    <stop offset="0.56" stop-color="#7E4CA8"/>
    <stop offset="1" stop-color="#0048FF"/>
    </linearGradient>
    <linearGradient id="paint8_linear_50_59" x1="1689.26" y1="523.928" x2="1129.41" y2="375.472" gradientUnits="userSpaceOnUse">
    <stop stop-color="#FC5050"/>
    <stop offset="0.56" stop-color="#7E4CA8"/>
    <stop offset="1" stop-color="#0048FF"/>
    </linearGradient>
    <linearGradient id="paint9_linear_50_59" x1="1689.26" y1="523.928" x2="1129.41" y2="375.472" gradientUnits="userSpaceOnUse">
    <stop stop-color="#FC5050"/>
    <stop offset="0.56" stop-color="#7E4CA8"/>
    <stop offset="1" stop-color="#0048FF"/>
    </linearGradient>
    <linearGradient id="paint10_linear_50_59" x1="1689.26" y1="523.928" x2="1129.41" y2="375.472" gradientUnits="userSpaceOnUse">
    <stop stop-color="#FC5050"/>
    <stop offset="0.56" stop-color="#7E4CA8"/>
    <stop offset="1" stop-color="#0048FF"/>
    </linearGradient>
    <linearGradient id="paint11_linear_50_59" x1="1689.26" y1="523.928" x2="1129.41" y2="375.472" gradientUnits="userSpaceOnUse">
    <stop stop-color="#FC5050"/>
    <stop offset="0.56" stop-color="#7E4CA8"/>
    <stop offset="1" stop-color="#0048FF"/>
    </linearGradient>
    <linearGradient id="paint12_linear_50_59" x1="1689.26" y1="523.928" x2="1129.41" y2="375.472" gradientUnits="userSpaceOnUse">
    <stop stop-color="#FC5050"/>
    <stop offset="0.56" stop-color="#7E4CA8"/>
    <stop offset="1" stop-color="#0048FF"/>
    </linearGradient>
    <linearGradient id="paint13_linear_50_59" x1="-0.694269" y1="930.872" x2="486.194" y2="1021.77" gradientUnits="userSpaceOnUse">
    <stop stop-color="#E9B49F"/>
    <stop offset="0.091" stop-color="#E9B49F"/>
    <stop offset="0.435" stop-color="#BC457F"/>
    <stop offset="1" stop-color="#6F3FBF"/>
    </linearGradient>
    <linearGradient id="paint14_linear_50_59" x1="-0.694269" y1="930.872" x2="486.194" y2="1021.77" gradientUnits="userSpaceOnUse">
    <stop stop-color="#E9B49F"/>
    <stop offset="0.091" stop-color="#E9B49F"/>
    <stop offset="0.435" stop-color="#BC457F"/>
    <stop offset="1" stop-color="#6F3FBF"/>
    </linearGradient>
    <linearGradient id="paint15_linear_50_59" x1="-0.694269" y1="930.872" x2="486.194" y2="1021.77" gradientUnits="userSpaceOnUse">
    <stop stop-color="#E9B49F"/>
    <stop offset="0.091" stop-color="#E9B49F"/>
    <stop offset="0.435" stop-color="#BC457F"/>
    <stop offset="1" stop-color="#6F3FBF"/>
    </linearGradient>
    <linearGradient id="paint16_linear_50_59" x1="-0.694269" y1="930.872" x2="486.194" y2="1021.77" gradientUnits="userSpaceOnUse">
    <stop stop-color="#E9B49F"/>
    <stop offset="0.091" stop-color="#E9B49F"/>
    <stop offset="0.435" stop-color="#BC457F"/>
    <stop offset="1" stop-color="#6F3FBF"/>
    </linearGradient>
    <linearGradient id="paint17_linear_50_59" x1="-0.694269" y1="930.872" x2="486.194" y2="1021.77" gradientUnits="userSpaceOnUse">
    <stop stop-color="#E9B49F"/>
    <stop offset="0.091" stop-color="#E9B49F"/>
    <stop offset="0.435" stop-color="#BC457F"/>
    <stop offset="1" stop-color="#6F3FBF"/>
    </linearGradient>
    <linearGradient id="paint18_linear_50_59" x1="-0.694269" y1="930.872" x2="486.194" y2="1021.77" gradientUnits="userSpaceOnUse">
    <stop stop-color="#E9B49F"/>
    <stop offset="0.091" stop-color="#E9B49F"/>
    <stop offset="0.435" stop-color="#BC457F"/>
    <stop offset="1" stop-color="#6F3FBF"/>
    </linearGradient>
    <linearGradient id="paint19_linear_50_59" x1="-0.694269" y1="930.872" x2="486.194" y2="1021.77" gradientUnits="userSpaceOnUse">
    <stop stop-color="#E9B49F"/>
    <stop offset="0.091" stop-color="#E9B49F"/>
    <stop offset="0.435" stop-color="#BC457F"/>
    <stop offset="1" stop-color="#6F3FBF"/>
    </linearGradient>
    <linearGradient id="paint20_linear_50_59" x1="-0.694269" y1="930.872" x2="486.194" y2="1021.77" gradientUnits="userSpaceOnUse">
    <stop stop-color="#E9B49F"/>
    <stop offset="0.091" stop-color="#E9B49F"/>
    <stop offset="0.435" stop-color="#BC457F"/>
    <stop offset="1" stop-color="#6F3FBF"/>
    </linearGradient>
    <linearGradient id="paint21_linear_50_59" x1="-0.694269" y1="930.872" x2="486.194" y2="1021.77" gradientUnits="userSpaceOnUse">
    <stop stop-color="#E9B49F"/>
    <stop offset="0.091" stop-color="#E9B49F"/>
    <stop offset="0.435" stop-color="#BC457F"/>
    <stop offset="1" stop-color="#6F3FBF"/>
    </linearGradient>
    <linearGradient id="paint22_linear_50_59" x1="-0.694269" y1="930.872" x2="486.194" y2="1021.77" gradientUnits="userSpaceOnUse">
    <stop stop-color="#E9B49F"/>
    <stop offset="0.091" stop-color="#E9B49F"/>
    <stop offset="0.435" stop-color="#BC457F"/>
    <stop offset="1" stop-color="#6F3FBF"/>
    </linearGradient>
    <linearGradient id="paint23_linear_50_59" x1="-0.694269" y1="930.872" x2="486.194" y2="1021.77" gradientUnits="userSpaceOnUse">
    <stop stop-color="#E9B49F"/>
    <stop offset="0.091" stop-color="#E9B49F"/>
    <stop offset="0.435" stop-color="#BC457F"/>
    <stop offset="1" stop-color="#6F3FBF"/>
    </linearGradient>
    <linearGradient id="paint24_linear_50_59" x1="-0.694269" y1="930.872" x2="486.194" y2="1021.77" gradientUnits="userSpaceOnUse">
    <stop stop-color="#E9B49F"/>
    <stop offset="0.091" stop-color="#E9B49F"/>
    <stop offset="0.435" stop-color="#BC457F"/>
    <stop offset="1" stop-color="#6F3FBF"/>
    </linearGradient>
    <linearGradient id="paint25_linear_50_59" x1="-0.694269" y1="930.872" x2="486.194" y2="1021.77" gradientUnits="userSpaceOnUse">
    <stop stop-color="#E9B49F"/>
    <stop offset="0.091" stop-color="#E9B49F"/>
    <stop offset="0.435" stop-color="#BC457F"/>
    <stop offset="1" stop-color="#6F3FBF"/>
    </linearGradient>
    </defs>
    </svg>

    
